<svg width="149" height="146" viewBox="0 0 149 146" fill="none" xmlns="http://www.w3.org/2000/svg">
<g clip-path="url(#clip0_130_169)">
<rect width="149" height="146" fill="#F9FAFB"/>
<g filter="url(#filter0_d_130_169)">
<path d="M66.3489 35.9461C67.4587 37.5122 68.1235 38.5764 68.3432 39.1387C68.7998 40.3277 68.6251 41.4788 67.8191 42.592C67.8364 42.6564 67.7979 42.7703 67.7036 42.9336C69.0941 45.8048 69.9821 48.6037 70.3676 51.3302C70.753 54.0567 71.016 56.7124 71.1565 59.2975C73.0464 52.4414 74.6507 47.3528 75.9694 44.0316C78.6838 37.1617 81.5485 32.0114 84.5633 28.5809C85.597 27.5447 86.9401 26.6327 88.5925 25.8448C90.292 24.9753 91.9812 24.4537 93.6601 24.2799C95.339 24.1061 96.8316 24.3964 98.138 25.1506C99.5088 25.8876 100.406 27.3037 100.829 29.3988C102.391 42.439 103.599 54.6765 104.455 66.1114C105.293 77.482 105.39 88.5334 104.746 99.2659L104.797 99.459L104.701 99.4849C104.549 102.01 103.057 104.17 100.225 105.964C97.4402 107.677 94.7529 108.466 92.1632 108.331C89.0411 108.271 87.3069 107.079 86.9606 104.756L86.4619 102.509L86.4101 102.315C86.2536 100.701 86.1063 99.636 85.9683 99.1209C85.8774 98.524 85.8296 98.0882 85.825 97.8134C85.5052 96.1046 85.3486 94.4901 85.3554 92.9699C85.4093 91.368 85.4121 90.0904 85.3637 89.1371C85.3153 88.1839 85.2842 87.295 85.2703 86.4704C85.2392 85.5815 85.1954 84.9031 85.1391 84.4351C83.5893 88.4393 82.3941 90.9336 81.5536 91.918C79.4609 94.4113 76.6909 96.0507 73.2434 96.8364C71.0839 97.2771 69.731 97.1219 69.1847 96.3711C68.0576 94.7406 67.3221 93.7988 66.9783 93.5459C66.4539 93.1342 65.899 92.3512 65.3135 91.1967C65.6236 99.0507 65.3877 104.739 64.6061 108.261C64.29 109.657 63.9393 110.925 63.5542 112.063C63.2221 114.43 61.5583 116.463 58.5629 118.163C55.7606 119.811 52.8456 120.523 49.8178 120.299C46.7428 120.157 44.9591 118.909 44.4668 116.556C43.9744 114.204 43.6809 111.176 43.5863 107.475C43.41 103.726 43.343 99.7409 43.3852 95.5195C43.3392 82.2112 43.492 73.5085 43.8435 69.4112C44.2594 65.2967 44.6656 62.0475 45.0622 59.6637C46.0518 54.0841 47.1462 49.9258 48.3453 47.1889C49.2545 42.5971 51.9152 39.2615 56.3273 37.182C59.808 35.4901 63.1486 35.0782 66.3489 35.9461Z" fill="#F9FAFB"/>
<path d="M66.3489 35.9461L74.508 30.1642L72.4319 27.2346L68.9664 26.2947L66.3489 35.9461ZM68.3432 39.1387L77.6784 35.5536L77.6681 35.5266L77.6576 35.4997L68.3432 39.1387ZM67.8191 42.592L59.7193 36.7274L56.928 40.5827L58.1599 45.1802L67.8191 42.592ZM67.7036 42.9336L59.0434 37.9335L56.3937 42.5228L58.7035 47.2922L67.7036 42.9336ZM71.1565 59.2975L61.1713 59.8402L80.797 61.9549L71.1565 59.2975ZM75.9694 44.0316L85.2636 47.722L85.2667 47.7142L85.2698 47.7063L75.9694 44.0316ZM84.5633 28.5809L77.4838 21.5183L77.2605 21.7421L77.0518 21.9796L84.5633 28.5809ZM88.5925 25.8448L92.8962 34.8713L93.0225 34.8111L93.1471 34.7474L88.5925 25.8448ZM98.138 25.1506L93.1381 33.8109L93.2692 33.8866L93.4027 33.9583L98.138 25.1506ZM100.829 29.3988L110.758 28.2098L110.711 27.8115L110.631 27.4182L100.829 29.3988ZM104.455 66.1114L114.428 65.3763L114.427 65.3655L104.455 66.1114ZM104.746 99.2659L94.7636 98.6667L94.6664 100.287L95.0864 101.854L104.746 99.2659ZM104.797 99.459L107.386 109.118L117.045 106.53L114.457 96.8709L104.797 99.459ZM104.701 99.4849L102.113 89.8257L95.1506 91.6911L94.7188 98.8858L104.701 99.4849ZM100.225 105.964L105.463 114.482L105.52 114.447L105.577 114.412L100.225 105.964ZM92.1632 108.331L92.6812 98.3448L92.5194 98.3364L92.3575 98.3332L92.1632 108.331ZM86.9606 104.756L96.8512 103.281L96.7994 102.933L96.7231 102.59L86.9606 104.756ZM86.4619 102.509L96.2244 100.342L96.1774 100.13L96.1211 99.9203L86.4619 102.509ZM86.4101 102.315L76.4568 103.28L76.5367 104.104L76.7509 104.904L86.4101 102.315ZM85.9683 99.1209L76.0823 100.627L76.1657 101.174L76.309 101.709L85.9683 99.1209ZM85.825 97.8134L95.8236 97.6452L95.8094 96.8023L95.6543 95.9736L85.825 97.8134ZM85.3554 92.9699L75.3611 92.6335L75.3561 92.7794L75.3555 92.9254L85.3554 92.9699ZM85.3637 89.1371L75.3765 89.644L75.3765 89.644L85.3637 89.1371ZM85.2703 86.4704L95.2689 86.3022L95.2674 86.2114L95.2642 86.1205L85.2703 86.4704ZM85.1391 84.4351L95.0673 83.2389L75.8132 80.8256L85.1391 84.4351ZM81.5536 91.918L73.9486 85.4247L73.9212 85.4568L73.8941 85.4891L81.5536 91.918ZM73.2434 96.8364L75.2425 106.635L75.3543 106.612L75.4655 106.586L73.2434 96.8364ZM69.1847 96.3711L60.9587 102.057L61.0273 102.157L61.0984 102.254L69.1847 96.3711ZM66.9783 93.5459L60.8038 101.412L60.9267 101.508L61.0525 101.601L66.9783 93.5459ZM65.3135 91.1967L74.2324 86.6741L55.3213 91.5911L65.3135 91.1967ZM64.6061 108.261L74.3592 110.47L74.3639 110.449L74.3686 110.428L64.6061 108.261ZM63.5542 112.063L54.0816 108.859L53.7814 109.746L53.6513 110.673L63.5542 112.063ZM58.5629 118.163L53.6273 109.466L53.56 109.504L53.4933 109.543L58.5629 118.163ZM49.8178 120.299L50.5555 110.326L50.4179 110.316L50.2801 110.31L49.8178 120.299ZM44.4668 116.556L54.2547 114.508L44.4668 116.556ZM43.5863 107.475L53.583 107.219L53.5803 107.112L53.5753 107.005L43.5863 107.475ZM43.3852 95.5195L53.3847 95.6194L53.3853 95.5521L53.3851 95.4849L43.3852 95.5195ZM43.8435 69.4112L33.8942 68.4055L33.8866 68.4809L33.8801 68.5564L43.8435 69.4112ZM45.0622 59.6637L35.2158 57.9173L35.2065 57.97L35.1977 58.0228L45.0622 59.6637ZM48.3453 47.1889L57.5048 51.2019L57.9428 50.202L58.1549 49.1312L48.3453 47.1889ZM56.3273 37.182L60.5906 46.2277L60.6449 46.2021L60.6989 46.1758L56.3273 37.182ZM58.1899 41.728C58.6846 42.4261 59.0074 42.9107 59.1985 43.2167C59.2928 43.3676 59.3221 43.4226 59.3098 43.4C59.3021 43.3858 59.2723 43.3305 59.2289 43.2404C59.1876 43.1544 59.1139 42.9955 59.0288 42.7778L77.6576 35.4997C76.9107 33.5882 75.4639 31.5132 74.508 30.1642L58.1899 41.728ZM59.008 42.7239C58.6746 41.8559 58.471 40.6904 58.6678 39.3934C58.8594 38.1315 59.3555 37.2299 59.7193 36.7274L75.9189 48.4566C78.521 44.8629 79.4571 40.185 77.6784 35.5536L59.008 42.7239ZM58.1599 45.1802C57.7424 43.6224 57.793 42.295 57.892 41.4654C57.9935 40.6139 58.1878 39.943 58.3305 39.5212C58.606 38.7069 58.9244 38.1396 59.0434 37.9335L76.3638 47.9336C76.5771 47.5642 76.9618 46.8584 77.2758 45.9302C77.4869 45.3061 78.2649 42.9394 77.4784 40.0038L58.1599 45.1802ZM58.7035 47.2922C59.712 49.3748 60.2467 51.1786 60.466 52.7301L80.2691 49.9303C79.7175 46.0288 78.4762 42.2349 76.7037 38.5749L58.7035 47.2922ZM60.466 52.7301C60.8138 55.19 61.0473 57.5594 61.1713 59.8402L81.1418 58.7547C80.9847 55.8655 80.6922 52.9233 80.2691 49.9303L60.466 52.7301ZM80.797 61.9549C82.665 55.1781 84.1533 50.5183 85.2636 47.722L66.6753 40.3413C65.1482 44.1872 63.4279 49.7046 61.5161 56.64L80.797 61.9549ZM85.2698 47.7063C87.789 41.3303 90.1437 37.3796 92.0748 35.1822L77.0518 21.9796C72.9532 26.6433 69.5787 32.993 66.6691 40.3569L85.2698 47.7063ZM91.6428 35.6435C91.6968 35.5894 92.0267 35.2859 92.8962 34.8713L84.2887 16.8184C81.8535 17.9795 79.4972 19.5 77.4838 21.5183L91.6428 35.6435ZM93.1471 34.7474C93.8894 34.3676 94.3906 34.2577 94.6897 34.2268L92.6305 14.3331C89.5718 14.6497 86.6946 15.5831 84.0378 16.9423L93.1471 34.7474ZM94.6897 34.2268C94.6553 34.2303 94.4513 34.2459 94.1301 34.1834C93.798 34.1188 93.452 33.9921 93.1381 33.8109L103.138 16.4903C99.7929 14.5591 96.144 13.9694 92.6305 14.3331L94.6897 34.2268ZM93.4027 33.9583C92.4583 33.4506 91.7895 32.7454 91.3914 32.1169C91.0342 31.5531 90.9939 31.214 91.0274 31.3794L110.631 27.4182C109.85 23.5545 107.745 18.9622 102.873 16.3429L93.4027 33.9583ZM90.9002 30.5879C92.4466 43.5013 93.6397 55.5899 94.4826 66.8574L114.427 65.3655C113.559 53.7632 112.335 41.3767 110.758 28.2098L90.9002 30.5879ZM94.4818 66.8466C95.2891 77.7995 95.3796 88.4045 94.7636 98.6667L114.728 99.865C115.4 88.6624 115.297 77.1644 114.428 65.3763L94.4818 66.8466ZM95.0864 101.854L95.1381 102.047L114.457 96.8709L114.405 96.6777L95.0864 101.854ZM102.209 89.7998L102.113 89.8257L107.289 109.144L107.386 109.118L102.209 89.7998ZM94.7188 98.8858C94.7353 98.6103 94.7925 98.3053 94.8995 98.0002C95.0058 97.6975 95.1356 97.4669 95.2404 97.3151C95.4378 97.0294 95.4572 97.1469 94.8737 97.5165L105.577 114.412C110.157 111.51 114.279 106.811 114.683 100.084L94.7188 98.8858ZM94.9872 97.4456C93.4768 98.3744 92.7766 98.3497 92.6812 98.3448L91.6452 118.318C96.7291 118.582 101.404 116.979 105.463 114.482L94.9872 97.4456ZM92.3575 98.3332C91.8614 98.3236 92.8357 98.2234 94.1846 99.1505C94.9112 99.6498 95.5829 100.342 96.0858 101.192C96.5753 102.019 96.7756 102.774 96.8512 103.281L77.0699 106.231C77.5997 109.784 79.4253 113.275 82.8573 115.634C85.9405 117.752 89.3429 118.278 91.9689 118.329L92.3575 98.3332ZM96.7231 102.59L96.2244 100.342L76.6993 104.675L77.198 106.922L96.7231 102.59ZM96.1211 99.9203L96.0694 99.7272L76.7509 104.904L76.8026 105.097L96.1211 99.9203ZM96.3635 101.35C96.2213 99.8842 96.0162 97.9834 95.6275 96.5327L76.309 101.709C76.2457 101.473 76.2244 101.341 76.2327 101.387C76.2374 101.413 76.2527 101.504 76.2766 101.676C76.3248 102.025 76.3858 102.548 76.4568 103.28L96.3635 101.35ZM95.8543 97.6152C95.8391 97.5153 95.8276 97.4351 95.8192 97.3726C95.8151 97.3417 95.8119 97.3166 95.8094 97.2968C95.807 97.277 95.8055 97.2639 95.8048 97.2571C95.804 97.2501 95.8042 97.2513 95.805 97.2598C95.8058 97.2682 95.8074 97.2869 95.8095 97.3146C95.8115 97.3421 95.8142 97.383 95.8168 97.4356C95.8194 97.4877 95.8221 97.5586 95.8236 97.6452L75.8264 97.9815C75.8432 98.9776 75.984 99.9816 76.0823 100.627L95.8543 97.6152ZM95.6543 95.9736C95.4346 94.7996 95.3517 93.8202 95.3553 93.0144L75.3555 92.9254C75.3455 95.16 75.5758 97.4096 75.9957 99.6531L95.6543 95.9736ZM95.3497 93.3062C95.4077 91.5841 95.4198 89.9889 95.3508 88.6303L75.3765 89.644C75.4044 90.192 75.4109 91.152 75.3611 92.6335L95.3497 93.3062ZM95.3508 88.6303C95.3073 87.7727 95.2806 86.9979 95.2689 86.3022L75.2717 86.6387C75.2878 87.592 75.3233 88.595 75.3765 89.644L95.3508 88.6303ZM95.2642 86.1205C95.2302 85.1495 95.1751 84.1343 95.0673 83.2389L75.2108 85.6312C75.2096 85.621 75.2202 85.711 75.2349 85.9385C75.2489 86.1556 75.2633 86.446 75.2764 86.8204L95.2642 86.1205ZM75.8132 80.8256C75.0868 82.7024 74.5048 84.064 74.0621 84.9879C73.842 85.4473 73.6947 85.7178 73.6196 85.846C73.5187 86.0185 73.6249 85.8038 73.9486 85.4247L89.1586 98.4114C90.4804 96.8633 91.4508 94.982 92.0986 93.63C92.851 92.0596 93.6415 90.1719 94.4649 88.0445L75.8132 80.8256ZM73.8941 85.4891C73.3263 86.1655 72.5372 86.741 71.0213 87.0865L75.4655 106.586C80.8446 105.36 85.5955 102.657 89.2132 98.347L73.8941 85.4891ZM71.2443 87.0383C70.6417 87.1613 70.9339 87.0223 71.7482 87.1157C72.5416 87.2066 75.2552 87.7172 77.271 90.4879L61.0984 102.254C63.6605 105.776 67.3236 106.739 69.4699 106.985C71.6372 107.234 73.6856 106.952 75.2425 106.635L71.2443 87.0383ZM77.4107 90.6849C76.7983 89.799 76.2081 88.977 75.6691 88.2868C75.4055 87.9493 74.3498 86.5543 72.9041 85.4907L61.0525 101.601C60.8263 101.435 60.645 101.285 60.5132 101.171C60.3793 101.056 60.2711 100.955 60.1912 100.878C60.0363 100.729 59.9328 100.617 59.8893 100.568C59.8416 100.516 59.8205 100.49 59.8298 100.501C59.8377 100.51 59.8627 100.541 59.9065 100.597C59.9962 100.712 60.1299 100.889 60.3132 101.142C60.4943 101.392 60.7087 101.696 60.9587 102.057L77.4107 90.6849ZM73.1528 85.6798C73.5499 85.9915 73.8285 86.2745 73.9995 86.4638C74.1732 86.6561 74.2805 86.8012 74.3278 86.868C74.4126 86.9875 74.3742 86.9537 74.2324 86.6741L56.3947 95.7193C57.1333 97.1759 58.4932 99.5983 60.8038 101.412L73.1528 85.6798ZM55.3213 91.5911C55.6276 99.3497 55.3249 103.926 54.8436 106.095L74.3686 110.428C75.4506 105.552 75.6195 98.7518 75.3058 90.8023L55.3213 91.5911ZM54.853 106.053C54.5992 107.174 54.3376 108.102 54.0816 108.859L73.0269 115.268C73.5411 113.747 73.9807 112.141 74.3592 110.47L54.853 106.053ZM53.6513 110.673C53.7026 110.307 53.8073 109.956 53.9486 109.644C54.0874 109.338 54.2323 109.135 54.3181 109.03C54.4681 108.847 54.3687 109.045 53.6273 109.466L63.4984 126.86C67.945 124.336 72.5269 120.081 73.4572 113.453L53.6513 110.673ZM53.4933 109.543C52.3134 110.237 51.4088 110.389 50.5555 110.326L49.08 130.272C54.2823 130.657 59.2078 129.385 63.6324 126.782L53.4933 109.543ZM50.2801 110.31C49.8859 110.291 50.7295 110.24 51.9052 111.062C52.5219 111.493 53.0905 112.074 53.5307 112.77C53.9613 113.451 54.1643 114.076 54.2547 114.508L34.6788 118.605C35.387 121.989 37.2408 125.212 40.4424 127.451C43.4017 129.521 46.6747 130.164 49.3554 130.288L50.2801 110.31ZM54.2547 114.508C53.9331 112.971 53.6695 110.604 53.583 107.219L33.5896 107.73C33.6923 111.749 34.0157 115.436 34.6788 118.605L54.2547 114.508ZM53.5753 107.005C53.4089 103.468 53.3442 99.6739 53.3847 95.6194L33.3857 95.4195C33.3418 99.8079 33.4111 103.984 33.5973 107.944L53.5753 107.005ZM53.3851 95.4849C53.3388 82.0769 53.5005 73.8374 53.8069 70.266L33.8801 68.5564C33.4834 73.1796 33.3396 82.3455 33.3852 95.554L53.3851 95.4849ZM53.7928 70.417C54.2 66.3888 54.5811 63.3815 54.9266 61.3045L35.1977 58.0228C34.7501 60.7136 34.3188 64.2047 33.8942 68.4055L53.7928 70.417ZM54.9085 61.41C55.8596 56.0475 56.7916 52.8297 57.5048 51.2019L39.1859 43.1758C37.5008 47.0219 36.2439 52.1207 35.2158 57.9173L54.9085 61.41ZM58.1549 49.1312C58.4177 47.8039 58.9081 47.0206 60.5906 46.2277L52.064 28.1363C44.9223 31.5023 40.0914 37.3903 38.5358 45.2465L58.1549 49.1312ZM60.6989 46.1758C62.3903 45.3537 63.2455 45.4657 63.7315 45.5975L68.9664 26.2947C63.0516 24.6906 57.2258 25.6265 51.9557 28.1881L60.6989 46.1758Z" fill="#0284C7"/>
</g>
<g filter="url(#filter1_d_130_169)">
<path d="M66.3489 35.9461C67.4587 37.5122 68.1235 38.5764 68.3432 39.1387C68.7998 40.3277 68.6251 41.4788 67.8191 42.592C67.8364 42.6564 67.7979 42.7703 67.7036 42.9336C69.0941 45.8048 69.9821 48.6037 70.3676 51.3302C70.753 54.0567 71.016 56.7124 71.1565 59.2975C73.0464 52.4414 74.6507 47.3528 75.9694 44.0316C78.6838 37.1617 81.5485 32.0114 84.5633 28.5809C85.597 27.5447 86.9401 26.6327 88.5925 25.8448C90.292 24.9753 91.9812 24.4537 93.6601 24.2799C95.339 24.1061 96.8316 24.3964 98.138 25.1506C99.5088 25.8876 100.406 27.3037 100.829 29.3988C102.391 42.439 103.599 54.6765 104.455 66.1114C105.293 77.482 105.39 88.5334 104.746 99.2659L104.797 99.459L104.701 99.4849C104.549 102.01 103.057 104.17 100.225 105.964C97.4402 107.677 94.7529 108.466 92.1632 108.331C89.0411 108.271 87.3069 107.079 86.9606 104.756L86.4619 102.509L86.4101 102.315C86.2536 100.701 86.1063 99.636 85.9683 99.1209C85.8774 98.524 85.8296 98.0882 85.825 97.8134C85.5052 96.1046 85.3486 94.4901 85.3554 92.9699C85.4093 91.368 85.4121 90.0904 85.3637 89.1371C85.3153 88.1839 85.2842 87.295 85.2703 86.4704C85.2392 85.5815 85.1954 84.9031 85.1391 84.4351C83.5893 88.4393 82.3941 90.9336 81.5536 91.918C79.4609 94.4113 76.6909 96.0507 73.2434 96.8364C71.0839 97.2771 69.731 97.1219 69.1847 96.3711C68.0576 94.7406 67.3221 93.7988 66.9783 93.5459C66.4539 93.1342 65.899 92.3512 65.3135 91.1967C65.6236 99.0507 65.3877 104.739 64.6061 108.261C64.29 109.657 63.9393 110.925 63.5542 112.063C63.2221 114.43 61.5583 116.463 58.5629 118.163C55.7606 119.811 52.8456 120.523 49.8178 120.299C46.7428 120.157 44.9591 118.909 44.4668 116.556C43.9744 114.204 43.6809 111.176 43.5863 107.475C43.41 103.726 43.343 99.7409 43.3852 95.5195C43.3392 82.2112 43.492 73.5085 43.8435 69.4112C44.2594 65.2967 44.6656 62.0475 45.0622 59.6637C46.0518 54.0841 47.1462 49.9258 48.3453 47.1889C49.2545 42.5971 51.9152 39.2615 56.3273 37.182C59.808 35.4901 63.1486 35.0782 66.3489 35.9461Z" fill="#F9FAFB"/>
<path d="M66.3489 35.9461L70.4284 33.0552L69.3904 31.5903L67.6576 31.1204L66.3489 35.9461ZM68.3432 39.1387L73.0108 37.3461L73.0056 37.3327L73.0004 37.3192L68.3432 39.1387ZM67.8191 42.592L63.7692 39.6597L62.3735 41.5874L62.9895 43.8861L67.8191 42.592ZM67.7036 42.9336L63.3735 40.4335L62.0486 42.7282L63.2035 45.1129L67.7036 42.9336ZM71.1565 59.2975L66.1639 59.5689L75.9767 60.6262L71.1565 59.2975ZM75.9694 44.0316L80.6165 45.8768L80.6196 45.869L75.9694 44.0316ZM84.5633 28.5809L81.0235 25.0496L80.9119 25.1615L80.8076 25.2802L84.5633 28.5809ZM88.5925 25.8448L90.7443 30.3581L90.8075 30.328L90.8698 30.2961L88.5925 25.8448ZM98.138 25.1506L95.638 29.4807L95.7036 29.5186L95.7703 29.5545L98.138 25.1506ZM100.829 29.3988L105.794 28.8043L105.77 28.6051L105.73 28.4085L100.829 29.3988ZM104.455 66.1114L109.441 65.7439L109.441 65.7385L104.455 66.1114ZM104.746 99.2659L99.7546 98.9663L99.706 99.7762L99.916 100.56L104.746 99.2659ZM104.797 99.459L106.091 104.289L110.921 102.995L109.627 98.165L104.797 99.459ZM104.701 99.4849L103.407 94.6553L99.9257 95.588L99.7098 99.1853L104.701 99.4849ZM100.225 105.964L102.844 110.223L102.873 110.206L102.901 110.188L100.225 105.964ZM92.1632 108.331L92.4222 103.338L92.3413 103.334L92.2604 103.332L92.1632 108.331ZM86.9606 104.756L91.9059 104.019L91.88 103.845L91.8419 103.673L86.9606 104.756ZM86.4619 102.509L91.3432 101.425L91.3196 101.319L91.2915 101.214L86.4619 102.509ZM86.4101 102.315L81.4335 102.798L81.4734 103.21L81.5805 103.609L86.4101 102.315ZM85.9683 99.1209L81.0253 99.8737L81.067 100.147L81.1386 100.415L85.9683 99.1209ZM85.825 97.8134L90.8243 97.7293L90.8172 97.3078L90.7396 96.8935L85.825 97.8134ZM85.3554 92.9699L80.3582 92.8017L80.3558 92.8746L80.3554 92.9476L85.3554 92.9699ZM85.3637 89.1371L80.3701 89.3906L80.3701 89.3906L85.3637 89.1371ZM85.2703 86.4704L90.2696 86.3863L90.2688 86.3409L90.2673 86.2955L85.2703 86.4704ZM85.1391 84.4351L90.1032 83.837L80.4761 82.6303L85.1391 84.4351ZM81.5536 91.918L77.7511 88.6713L77.7374 88.6874L77.7238 88.7036L81.5536 91.918ZM73.2434 96.8364L74.243 101.736L74.2989 101.724L74.3545 101.711L73.2434 96.8364ZM69.1847 96.3711L65.0717 99.2142L65.106 99.2638L65.1415 99.3127L69.1847 96.3711ZM66.9783 93.5459L63.891 97.4789L63.9525 97.5271L64.0154 97.5734L66.9783 93.5459ZM65.3135 91.1967L69.773 88.9354L60.3174 91.3939L65.3135 91.1967ZM64.6061 108.261L69.4826 109.365L69.485 109.355L69.4873 109.344L64.6061 108.261ZM63.5542 112.063L58.8179 110.461L58.6678 110.904L58.6027 111.368L63.5542 112.063ZM58.5629 118.163L56.0951 113.814L56.0614 113.833L56.0281 113.853L58.5629 118.163ZM49.8178 120.299L50.1866 115.313L50.1178 115.307L50.0489 115.304L49.8178 120.299ZM44.4668 116.556L49.3607 115.532L44.4668 116.556ZM43.5863 107.475L48.5847 107.347L48.5833 107.293L48.5808 107.24L43.5863 107.475ZM43.3852 95.5195L48.3849 95.5694L48.3853 95.5358L48.3851 95.5022L43.3852 95.5195ZM43.8435 69.4112L38.8688 68.9083L38.865 68.9461L38.8618 68.9838L43.8435 69.4112ZM45.0622 59.6637L40.139 58.7905L40.1343 58.8168L40.1299 58.8433L45.0622 59.6637ZM48.3453 47.1889L52.925 49.1954L53.1441 48.6954L53.2501 48.16L48.3453 47.1889ZM56.3273 37.182L58.459 41.7048L58.4861 41.692L58.5131 41.6789L56.3273 37.182ZM62.2694 38.837C62.7942 39.5776 63.1774 40.1487 63.4392 40.5678C63.5694 40.7763 63.6532 40.9211 63.7024 41.0114C63.7596 41.1167 63.7361 41.0864 63.686 40.9582L73.0004 37.3192C72.5171 36.0823 71.4613 34.5127 70.4284 33.0552L62.2694 38.837ZM63.6756 40.9313C63.6231 40.7946 63.5565 40.5043 63.6112 40.1436C63.6633 39.8004 63.7888 39.6327 63.7692 39.6597L71.869 45.5243C73.573 43.1708 74.1285 40.2564 73.0108 37.3461L63.6756 40.9313ZM62.9895 43.8861C62.7829 43.1153 62.8086 42.4612 62.8568 42.0575C62.9062 41.6429 63.0003 41.3201 63.0668 41.1235C63.195 40.7448 63.3375 40.4958 63.3735 40.4335L72.0337 45.4336C72.1639 45.2081 72.3729 44.8205 72.5395 44.3279C72.6547 43.9875 73.0463 42.7818 72.6487 41.2979L62.9895 43.8861ZM63.2035 45.1129C64.403 47.5898 65.1144 49.8912 65.4168 52.0301L75.3183 50.6303C74.8498 47.3163 73.7851 44.0199 72.2036 40.7542L63.2035 45.1129ZM65.4168 52.0301C65.7834 54.6233 66.0316 57.1359 66.1639 59.5689L76.1491 59.0261C76.0004 56.2889 75.7226 53.49 75.3183 50.6303L65.4168 52.0301ZM75.9767 60.6262C77.8557 53.8098 79.402 48.9355 80.6165 45.8768L71.3223 42.1864C69.8995 45.77 68.2371 51.073 66.3363 57.9688L75.9767 60.6262ZM80.6196 45.869C83.2364 39.246 85.8461 34.6955 88.3191 31.8816L80.8076 25.2802C77.2509 29.3273 74.1313 35.0773 71.3192 42.1943L80.6196 45.869ZM88.1031 32.1122C88.6469 31.5671 89.4834 30.9593 90.7443 30.3581L86.4406 21.3316C84.3968 22.3061 82.5471 23.5224 81.0235 25.0496L88.1031 32.1122ZM90.8698 30.2961C92.0907 29.6715 93.1859 29.3557 94.1749 29.2533L93.1453 19.3065C90.7765 19.5517 88.4933 20.2792 86.3151 21.3936L90.8698 30.2961ZM94.1749 29.2533C94.9365 29.1745 95.351 29.315 95.638 29.4807L100.638 20.8205C98.3123 19.4777 95.7415 19.0378 93.1453 19.3065L94.1749 29.2533ZM95.7703 29.5545C95.72 29.5274 95.6719 29.4921 95.6347 29.4568C95.599 29.4229 95.5954 29.41 95.6151 29.4412C95.6608 29.5133 95.8058 29.7826 95.9283 30.3891L105.73 28.4085C105.128 25.4291 103.627 22.4249 100.506 20.7467L95.7703 29.5545ZM95.8647 29.9933C97.4187 42.9702 98.6195 55.1332 99.4686 66.4844L109.441 65.7385C108.579 54.2199 107.363 41.9078 105.794 28.8043L95.8647 29.9933ZM99.4682 66.479C100.291 77.6407 100.385 88.469 99.7546 98.9663L109.737 99.5654C110.395 88.5979 110.295 77.3232 109.441 65.7439L99.4682 66.479ZM99.916 100.56L99.9678 100.753L109.627 98.165L109.575 97.9718L99.916 100.56ZM103.503 94.6294L103.407 94.6553L105.995 104.315L106.091 104.289L103.503 94.6294ZM99.7098 99.1853C99.6843 99.6099 99.5074 100.5 97.5495 101.74L102.901 110.188C106.607 107.84 109.414 104.41 109.692 99.7845L99.7098 99.1853ZM97.6062 101.705C95.4585 103.025 93.7647 103.408 92.4222 103.338L91.9042 113.325C95.741 113.524 99.4219 112.328 102.844 110.223L97.6062 101.705ZM92.2604 103.332C91.778 103.323 91.4826 103.271 91.3305 103.232C91.1836 103.194 91.2224 103.182 91.3528 103.271C91.4993 103.372 91.6617 103.534 91.7832 103.739C91.8979 103.933 91.9114 104.055 91.9059 104.019L82.0152 105.493C82.3667 107.851 83.5396 110.036 85.6892 111.513C87.6643 112.87 89.9726 113.29 92.066 113.33L92.2604 103.332ZM91.8419 103.673L91.3432 101.425L81.5806 103.592L82.0793 105.839L91.8419 103.673ZM91.2915 101.214L91.2397 101.021L81.5805 103.609L81.6323 103.803L91.2915 101.214ZM91.3868 101.833C91.2374 100.293 91.0613 98.8097 90.7979 97.8268L81.1386 100.415C81.1239 100.36 81.1618 100.502 81.2294 100.991C81.2903 101.431 81.3588 102.028 81.4335 102.798L91.3868 101.833ZM90.9113 98.368C90.8728 98.1151 90.8486 97.9297 90.8345 97.8017C90.8188 97.6585 90.823 97.6503 90.8243 97.7293L80.8257 97.8975C80.8364 98.5329 80.9307 99.2528 81.0253 99.8737L90.9113 98.368ZM90.7396 96.8935C90.4699 95.4521 90.3502 94.1552 90.3553 92.9922L80.3554 92.9476C80.3471 94.8251 80.5405 96.7571 80.9103 98.7333L90.7396 96.8935ZM90.3526 93.1381C90.4085 91.476 90.4159 90.0397 90.3573 88.8837L80.3701 89.3906C80.4082 90.1412 80.4101 91.26 80.3582 92.8017L90.3526 93.1381ZM90.3573 88.8837C90.3113 87.9783 90.2824 87.1464 90.2696 86.3863L80.271 86.5545C80.286 87.4435 80.3193 88.3894 80.3701 89.3906L90.3573 88.8837ZM90.2673 86.2955C90.2347 85.3655 90.1853 84.5187 90.1032 83.837L80.175 85.0331C80.2056 85.2875 80.2437 85.7976 80.2734 86.6454L90.2673 86.2955ZM80.4761 82.6303C79.7255 84.5698 79.0914 86.0629 78.5712 87.1484C77.9988 88.3432 77.7206 88.7071 77.7511 88.6713L85.3561 95.1647C86.2271 94.1446 86.9668 92.7691 87.5895 91.4695C88.2645 90.0607 89.0029 88.3046 89.802 86.2398L80.4761 82.6303ZM77.7238 88.7036C76.3936 90.2884 74.614 91.3959 72.1324 91.9615L74.3545 101.711C78.7677 100.706 82.5282 98.5342 85.3834 95.1325L77.7238 88.7036ZM72.2439 91.9374C71.854 92.0169 71.5672 92.0556 71.37 92.0716C71.1664 92.0882 71.1152 92.0758 71.1787 92.0831C71.2371 92.0898 72.3565 92.2318 73.2278 93.4295L65.1415 99.3127C66.5592 101.261 68.6281 101.856 70.0395 102.018C71.4614 102.181 72.9246 102.004 74.243 101.736L72.2439 91.9374ZM73.2977 93.528C72.7097 92.6774 72.1818 91.9449 71.7284 91.3644C71.4128 90.9601 70.75 90.1133 69.9412 89.5183L64.0154 97.5734C63.8231 97.432 63.6997 97.3153 63.6584 97.2756C63.6086 97.2276 63.5875 97.2033 63.5995 97.2166C63.6261 97.246 63.7053 97.3378 63.8471 97.5194C64.1292 97.8806 64.5326 98.4342 65.0717 99.2142L73.2977 93.528ZM70.0655 89.6128C70.1985 89.7172 70.2714 89.7957 70.2894 89.8157C70.3088 89.8371 70.294 89.8234 70.2483 89.7589C70.152 89.6229 69.9902 89.3638 69.773 88.9354L60.8541 93.458C61.5161 94.7635 62.4736 96.3663 63.891 97.4789L70.0655 89.6128ZM60.3174 91.3939C60.6256 99.2002 60.3563 104.332 59.7248 107.178L69.4873 109.344C70.4192 105.145 70.6216 98.9013 70.3097 90.9995L60.3174 91.3939ZM59.7295 107.157C59.4446 108.415 59.1385 109.513 58.8179 110.461L68.2905 113.665C68.7402 112.336 69.1353 110.899 69.4826 109.365L59.7295 107.157ZM58.6027 111.368C58.5697 111.604 58.3649 112.526 56.0951 113.814L61.0306 122.511C64.7517 120.4 67.8745 117.256 68.5057 112.758L58.6027 111.368ZM56.0281 113.853C54.037 115.024 52.1272 115.456 50.1866 115.313L49.4489 125.285C53.5639 125.59 57.4842 124.598 61.0976 122.473L56.0281 113.853ZM50.0489 115.304C49.5867 115.283 49.2929 115.225 49.1288 115.178C48.9703 115.132 48.9649 115.107 49.0395 115.159C49.1249 115.219 49.2266 115.319 49.3045 115.442C49.3775 115.557 49.3771 115.61 49.3607 115.532L39.5728 117.581C40.05 119.861 41.2614 121.922 43.3081 123.354C45.2337 124.701 47.4775 125.196 49.5866 125.294L50.0489 115.304ZM49.3607 115.532C48.9537 113.587 48.6752 110.89 48.5847 107.347L38.5879 107.603C38.6866 111.463 38.9951 114.82 39.5728 117.581L49.3607 115.532ZM48.5808 107.24C48.4095 103.597 48.3436 99.7074 48.3849 95.5694L38.3854 95.4695C38.3424 99.7744 38.4106 103.855 38.5918 107.71L48.5808 107.24ZM48.3851 95.5022C48.339 82.1441 48.4962 73.6729 48.8252 69.8386L38.8618 68.9838C38.4877 73.344 38.3394 82.2784 38.3852 95.5367L48.3851 95.5022ZM48.8181 69.9141C49.2297 65.8427 49.6234 62.7145 49.9944 60.4841L40.1299 58.8433C39.7079 61.3805 39.2891 64.7507 38.8688 68.9083L48.8181 69.9141ZM49.9853 60.5369C50.9557 55.0658 51.9689 51.3778 52.925 49.1954L43.7656 45.1823C42.3235 48.4739 41.1479 53.1024 40.139 58.7905L49.9853 60.5369ZM53.2501 48.16C53.8361 45.2005 55.4116 43.141 58.459 41.7048L54.1957 32.6591C48.4187 35.3819 44.6729 39.9937 43.4405 46.2177L53.2501 48.16ZM58.5131 41.6789C61.0992 40.4219 63.197 40.2719 65.0402 40.7718L67.6576 31.1204C63.1001 29.8844 58.5169 30.5583 54.1415 32.6851L58.5131 41.6789Z" fill="#0C4A6E"/>
</g>
</g>
<defs>
<filter id="filter0_d_130_169" x="20.3962" y="22.3923" width="104.322" height="108.494" filterUnits="userSpaceOnUse" color-interpolation-filters="sRGB">
<feFlood flood-opacity="0" result="BackgroundImageFix"/>
<feColorMatrix in="SourceAlpha" type="matrix" values="0 0 0 0 0 0 0 0 0 0 0 0 0 0 0 0 0 0 127 0" result="hardAlpha"/>
<feOffset dy="4"/>
<feGaussianBlur stdDeviation="2"/>
<feComposite in2="hardAlpha" operator="out"/>
<feColorMatrix type="matrix" values="0 0 0 0 0 0 0 0 0 0 0 0 0 0 0 0 0 0 0.25 0"/>
<feBlend mode="normal" in2="BackgroundImageFix" result="effect1_dropShadow_130_169"/>
<feBlend mode="normal" in="SourceGraphic" in2="effect1_dropShadow_130_169" result="shape"/>
</filter>
<filter id="filter1_d_130_169" x="20.3962" y="22.3923" width="104.322" height="108.494" filterUnits="userSpaceOnUse" color-interpolation-filters="sRGB">
<feFlood flood-opacity="0" result="BackgroundImageFix"/>
<feColorMatrix in="SourceAlpha" type="matrix" values="0 0 0 0 0 0 0 0 0 0 0 0 0 0 0 0 0 0 127 0" result="hardAlpha"/>
<feOffset dy="4"/>
<feGaussianBlur stdDeviation="2"/>
<feComposite in2="hardAlpha" operator="out"/>
<feColorMatrix type="matrix" values="0 0 0 0 0 0 0 0 0 0 0 0 0 0 0 0 0 0 0.25 0"/>
<feBlend mode="normal" in2="BackgroundImageFix" result="effect1_dropShadow_130_169"/>
<feBlend mode="normal" in="SourceGraphic" in2="effect1_dropShadow_130_169" result="shape"/>
</filter>
<clipPath id="clip0_130_169">
<rect width="149" height="146" fill="white"/>
</clipPath>
</defs>
</svg>
